<mxfile host="app.diagrams.net" modified="2023-06-16T09:43:11.853Z" agent="Mozilla/5.0 (Windows NT 10.0; Win64; x64) AppleWebKit/537.36 (KHTML, like Gecko) Chrome/110.0.0.0 Safari/537.36" etag="cHLbuanBVOt8D5_IUPPs" version="21.3.8" type="device">
  <diagram id="oQMesu0blkfVtcud4Ic4" name="Page-1">
    <mxGraphModel dx="2021" dy="677" grid="1" gridSize="10" guides="1" tooltips="1" connect="1" arrows="1" fold="1" page="1" pageScale="1" pageWidth="827" pageHeight="1169" math="0" shadow="0">
      <root>
        <mxCell id="0" />
        <mxCell id="1" parent="0" />
        <mxCell id="98p_dCbyfDko-DnN-u34-4" style="vsdxID=197;fillColor=#EBF1DF;gradientColor=none;shape=stencil(nZBLDoAgDERP0z3SIyjew0SURgSD+Lu9kMZoXLhwN9O+tukAlrNpJg1SzDH4QW/URgNYgZTkjA4UkwJUgGXng+6DX1zLfmoymdXo17xh5zmRJ6Q42BWCfc2oJfdAr+Yv+AP9Cb7OJ3H/2JG1HNGz/84klThPVCc=);strokeColor=#000000;labelBackgroundColor=none;rounded=0;html=1;whiteSpace=wrap;" parent="1" vertex="1">
          <mxGeometry x="-29" y="878" width="590" height="53" as="geometry" />
        </mxCell>
        <mxCell id="98p_dCbyfDko-DnN-u34-5" style="vsdxID=195;fillColor=#EBF1DF;shape=stencil(nZBLDoAgDERP0z3SIyjew0SURgSD+Lu9kMZoXLhwN9O+tukAlrNpJg1SzDH4QW/URgNYgZTkjA4UkwJUgGXng+6DX1zLfmoymdXo17xh5zmRJ6Q42BWCfc2oJfdAr+Yv+AP9Cb7OJ3H/2JG1HNGz/84klThPVCc=);strokeColor=#666666;labelBackgroundColor=none;rounded=0;html=1;whiteSpace=wrap;fontColor=#333333;" parent="1" vertex="1">
          <mxGeometry x="336" y="1296" width="48" height="26" as="geometry" />
        </mxCell>
        <mxCell id="98p_dCbyfDko-DnN-u34-12" style="vsdxID=93;fillColor=#f2dcda;gradientColor=none;shape=stencil(nZBLDoAgDERP0z3SIyjew0SURgSD+Lu9kMZoXLhwN9O+tukAlrNpJg1SzDH4QW/URgNYgZTkjA4UkwJUgGXng+6DX1zLfmoymdXo17xh5zmRJ6Q42BWCfc2oJfdAr+Yv+AP9Cb7OJ3H/2JG1HNGz/84klThPVCc=);strokeColor=#000000;labelBackgroundColor=none;rounded=0;html=1;whiteSpace=wrap;" parent="1" vertex="1">
          <mxGeometry x="-30" y="798" width="591" height="47" as="geometry" />
        </mxCell>
        <mxCell id="98p_dCbyfDko-DnN-u34-32" style="vsdxID=247;edgeStyle=none;startArrow=none;endArrow=classic;startSize=5;endSize=5;strokeColor=#923931;spacingTop=0;spacingBottom=0;spacingLeft=0;spacingRight=0;verticalAlign=middle;html=1;labelBackgroundColor=#ffffff;rounded=0;" parent="1" edge="1">
          <mxGeometry relative="1" as="geometry">
            <Array as="points" />
            <mxPoint x="268" y="934" as="sourcePoint" />
            <mxPoint x="268" y="970" as="targetPoint" />
          </mxGeometry>
        </mxCell>
        <mxCell id="98p_dCbyfDko-DnN-u34-39" value="&lt;p style=&quot;margin: 0px ; text-indent: 0px ; direction: ltr ; font-size: 14px&quot;&gt;&lt;font style=&quot;font-size: 14px&quot;&gt;&lt;br&gt;&lt;/font&gt;&lt;/p&gt;&lt;font style=&quot;font-size: 15px&quot;&gt;&lt;font style=&quot;font-size: 15px&quot;&gt;&lt;span style=&quot;font-family: &amp;#34;cambria math&amp;#34;&quot;&gt;X=w&lt;/span&gt;&lt;sub style=&quot;font-family: &amp;#34;cambria math&amp;#34;&quot;&gt;0*&lt;/sub&gt;&lt;span style=&quot;font-family: &amp;#34;cambria math&amp;#34;&quot;&gt;a&lt;/span&gt;&lt;sub style=&quot;font-family: &amp;#34;cambria math&amp;#34;&quot;&gt;0&lt;/sub&gt;&lt;span style=&quot;font-family: &amp;#34;cambria math&amp;#34;&quot;&gt;&amp;nbsp;+&amp;nbsp;&lt;/span&gt;&lt;span style=&quot;font-family: &amp;#34;cambria math&amp;#34;&quot;&gt;w&lt;/span&gt;&lt;sub style=&quot;font-family: &amp;#34;cambria math&amp;#34;&quot;&gt;1*&lt;/sub&gt;&lt;span style=&quot;font-family: &amp;#34;cambria math&amp;#34;&quot;&gt;a&lt;/span&gt;&lt;sub style=&quot;font-family: &amp;#34;cambria math&amp;#34;&quot;&gt;1&lt;/sub&gt;&lt;span style=&quot;font-family: &amp;#34;cambria math&amp;#34;&quot;&gt;+&lt;/span&gt;&lt;span style=&quot;font-family: &amp;#34;cambria math&amp;#34;&quot;&gt;w&lt;/span&gt;&lt;sub style=&quot;font-family: &amp;#34;cambria math&amp;#34;&quot;&gt;2*&lt;/sub&gt;&lt;span style=&quot;font-family: &amp;#34;cambria math&amp;#34;&quot;&gt;a&lt;/span&gt;&lt;sub style=&quot;font-family: &amp;#34;cambria math&amp;#34;&quot;&gt;2 &lt;/sub&gt;&lt;span style=&quot;font-family: &amp;#34;cambria math&amp;#34;&quot;&gt;+&lt;/span&gt;&lt;span style=&quot;font-family: &amp;#34;cambria math&amp;#34;&quot;&gt;w&lt;/span&gt;&lt;sub style=&quot;font-family: &amp;#34;cambria math&amp;#34;&quot;&gt;3*&lt;/sub&gt;&lt;span style=&quot;font-family: &amp;#34;cambria math&amp;#34;&quot;&gt;a&lt;/span&gt;&lt;sub style=&quot;font-family: &amp;#34;cambria math&amp;#34;&quot;&gt;3&lt;/sub&gt;&lt;span style=&quot;font-family: &amp;#34;cambria math&amp;#34;&quot;&gt;+&lt;/span&gt;&lt;span style=&quot;font-family: &amp;#34;cambria math&amp;#34;&quot;&gt;w&lt;/span&gt;&lt;sub style=&quot;font-family: &amp;#34;cambria math&amp;#34;&quot;&gt;4*&lt;/sub&gt;&lt;span style=&quot;font-family: &amp;#34;cambria math&amp;#34;&quot;&gt;a&lt;/span&gt;&lt;sub style=&quot;font-family: &amp;#34;cambria math&amp;#34;&quot;&gt;4&lt;/sub&gt;&lt;span style=&quot;font-family: &amp;#34;cambria math&amp;#34;&quot;&gt;-&lt;/span&gt;&lt;span style=&quot;font-family: &amp;#34;cambria math&amp;#34;&quot;&gt;w&lt;/span&gt;&lt;sub style=&quot;font-family: &amp;#34;cambria math&amp;#34;&quot;&gt;5*&lt;/sub&gt;&lt;span style=&quot;font-family: &amp;#34;cambria math&amp;#34;&quot;&gt;a&lt;/span&gt;&lt;sub style=&quot;font-family: &amp;#34;cambria math&amp;#34;&quot;&gt;5&lt;/sub&gt;&lt;span style=&quot;font-family: &amp;#34;cambria math&amp;#34;&quot;&gt;-&lt;/span&gt;&lt;span style=&quot;font-family: &amp;#34;cambria math&amp;#34;&quot;&gt;w&lt;/span&gt;&lt;sub style=&quot;font-family: &amp;#34;cambria math&amp;#34;&quot;&gt;6*&lt;/sub&gt;&lt;span style=&quot;font-family: &amp;#34;cambria math&amp;#34;&quot;&gt;a&lt;/span&gt;&lt;sub style=&quot;font-family: &amp;#34;cambria math&amp;#34;&quot;&gt;6&lt;/sub&gt;&lt;span style=&quot;font-family: &amp;#34;cambria math&amp;#34;&quot;&gt;-&lt;/span&gt;&lt;span style=&quot;font-family: &amp;#34;cambria math&amp;#34;&quot;&gt;w&lt;/span&gt;&lt;sub style=&quot;font-family: &amp;#34;cambria math&amp;#34;&quot;&gt;7*&lt;/sub&gt;&lt;span style=&quot;font-family: &amp;#34;cambria math&amp;#34;&quot;&gt;a&lt;/span&gt;&lt;sub style=&quot;font-family: &amp;#34;cambria math&amp;#34;&quot;&gt;7&lt;/sub&gt;&lt;sub style=&quot;font-family: &amp;#34;cambria math&amp;#34;&quot;&gt;&lt;br style=&quot;font-size: 15px&quot;&gt;&lt;/sub&gt;&lt;/font&gt;&lt;br&gt;&lt;/font&gt;" style="verticalAlign=middle;align=center;vsdxID=71;shape=stencil(vVHLDsIgEPwajiQI6RfU+h8bu22JCGRB2/69kG1iazx58DazM/vIjjBtmiCi0CplCjecbZ8nYc5Ca+snJJsLEqYTph0C4Ujh4XvmEaqzont41gkL96naodXKrGF6YSfQtUi0OXXDVlqPfJNP6usotUhYbJIUMmQb/GGrAxpRljVycDBuc1hKM2LclX8/7H9nFfB+82Cd45T2+mcspcSRmu4F);spacingTop=-3;spacingBottom=-1;spacingLeft=-3;spacingRight=-3;labelBackgroundColor=none;rounded=0;html=1;whiteSpace=wrap;" parent="1" vertex="1">
          <mxGeometry x="34" y="890" width="440" height="34.5" as="geometry" />
        </mxCell>
        <mxCell id="98p_dCbyfDko-DnN-u34-42" value="T" style="vsdxID=74;fillColor=#FFFFFF;gradientColor=none;shape=stencil(vVHLDsIgEPwajiQI6RfU+h8bu22JCGRB2/69kG1iazx58DazM/vIjjBtmiCi0CplCjecbZ8nYc5Ca+snJJsLEqYTph0C4Ujh4XvmEaqzont41gkL96naodXKrGF6YSfQtUi0OXXDVlqPfJNP6usotUhYbJIUMmQb/GGrAxpRljVycDBuc1hKM2LclX8/7H9nFfB+82Cd45T2+mcspcSRmu4F);labelBackgroundColor=none;rounded=0;html=1;whiteSpace=wrap;" parent="1" vertex="1">
          <mxGeometry x="349" y="1298" width="22" height="22" as="geometry" />
        </mxCell>
        <mxCell id="98p_dCbyfDko-DnN-u34-50" value="&lt;font style=&quot;font-family: calibri; color: rgb(0, 0, 0); direction: ltr; letter-spacing: 0px; line-height: 120%; opacity: 1;&quot;&gt;&lt;font style=&quot;font-size: 23px;&quot;&gt;Couche d’entrée&lt;/font&gt;&lt;br&gt;&lt;/font&gt;" style="verticalAlign=middle;align=center;vsdxID=192;fillColor=#FFF2CC;gradientColor=none;shape=stencil(nZBLDoAgDERP0z3SIyjew0SURgSD+Lu9kMZoXLhwN9O+tukAlrNpJg1SzDH4QW/URgNYgZTkjA4UkwJUgGXng+6DX1zLfmoymdXo17xh5zmRJ6Q42BWCfc2oJfdAr+Yv+AP9Cb7OJ3H/2JG1HNGz/84klThPVCc=);strokeColor=none;labelBackgroundColor=none;rounded=0;html=1;whiteSpace=wrap;" parent="1" vertex="1">
          <mxGeometry x="700" y="734" width="204" height="34" as="geometry" />
        </mxCell>
        <mxCell id="98p_dCbyfDko-DnN-u34-51" value="&lt;p style=&quot;align:center;margin-left:0;margin-right:0;margin-top:0px;margin-bottom:0px;text-indent:0;valign:middle;direction:ltr;&quot;&gt;&lt;font style=&quot;font-family: Calibri; color: rgb(0, 0, 0); direction: ltr; letter-spacing: 0px; line-height: 120%; opacity: 1; font-size: 23px;&quot;&gt;Couches intermédiaires&lt;/font&gt;&lt;font style=&quot;font-size:14px;font-family:Themed;color:#000000;direction:ltr;letter-spacing:0px;line-height:120%;opacity:1&quot;&gt;&lt;br&gt;&lt;/font&gt;&lt;/p&gt;" style="verticalAlign=middle;align=center;vsdxID=194;fillColor=#f5f5f5;shape=stencil(nZBLDoAgDERP0z3SIyjew0SURgSD+Lu9kMZoXLhwN9O+tukAlrNpJg1SzDH4QW/URgNYgZTkjA4UkwJUgGXng+6DX1zLfmoymdXo17xh5zmRJ6Q42BWCfc2oJfdAr+Yv+AP9Cb7OJ3H/2JG1HNGz/84klThPVCc=);strokeColor=#666666;labelBackgroundColor=none;rounded=0;html=1;whiteSpace=wrap;fontColor=#333333;" parent="1" vertex="1">
          <mxGeometry x="700" y="1000" width="204" height="60" as="geometry" />
        </mxCell>
        <mxCell id="98p_dCbyfDko-DnN-u34-52" value="&lt;font style=&quot;font-family: calibri; color: rgb(0, 0, 0); direction: ltr; letter-spacing: 0px; line-height: 120%; opacity: 1;&quot;&gt;&lt;font style=&quot;font-size: 23px;&quot;&gt;Couche de sortie&lt;/font&gt;&lt;br&gt;&lt;/font&gt;" style="verticalAlign=middle;align=center;vsdxID=196;fillColor=#ebf1df;shape=stencil(nZBLDoAgDERP0z3SIyjew0SURgSD+Lu9kMZoXLhwN9O+tukAlrNpJg1SzDH4QW/URgNYgZTkjA4UkwJUgGXng+6DX1zLfmoymdXo17xh5zmRJ6Q42BWCfc2oJfdAr+Yv+AP9Cb7OJ3H/2JG1HNGz/84klThPVCc=);strokeColor=#82b366;labelBackgroundColor=none;rounded=0;html=1;whiteSpace=wrap;" parent="1" vertex="1">
          <mxGeometry x="700" y="1286" width="204" height="34" as="geometry" />
        </mxCell>
        <mxCell id="98p_dCbyfDko-DnN-u34-64" style="vsdxID=85;fillColor=#fff2cc;gradientColor=none;shape=stencil(nZBLDoAgDERP0z3SIyjew0SURgSD+Lu9kMZoXLhwN9O+tukAlrNpJg1SzDH4QW/URgNYgZTkjA4UkwJUgGXng+6DX1zLfmoymdXo17xh5zmRJ6Q42BWCfc2oJfdAr+Yv+AP9Cb7OJ3H/2JG1HNGz/84klThPVCc=);strokeColor=#000000;labelBackgroundColor=none;rounded=0;html=1;whiteSpace=wrap;" parent="1" vertex="1">
          <mxGeometry x="-39" y="730" width="65" height="40" as="geometry" />
        </mxCell>
        <mxCell id="98p_dCbyfDko-DnN-u34-65" style="vsdxID=102;edgeStyle=none;startArrow=none;endArrow=classic;startSize=5;endSize=5;strokeColor=#923931;spacingTop=0;spacingBottom=0;spacingLeft=0;spacingRight=0;verticalAlign=middle;html=1;labelBackgroundColor=#ffffff;rounded=0;" parent="1" edge="1">
          <mxGeometry relative="1" as="geometry">
            <Array as="points" />
            <mxPoint x="-7" y="770" as="sourcePoint" />
            <mxPoint x="-7" y="798" as="targetPoint" />
          </mxGeometry>
        </mxCell>
        <mxCell id="98p_dCbyfDko-DnN-u34-66" value="&lt;p style=&quot;margin-left: 0 ; margin-right: 0 ; margin-top: 0px ; margin-bottom: 0px ; text-indent: 0 ; direction: ltr&quot;&gt;&lt;font style=&quot;font-size: 15px ; font-family: &amp;#34;cambria math&amp;#34; ; color: #000000 ; direction: ltr ; letter-spacing: 0px ; line-height: 120% ; opacity: 1&quot;&gt;w&lt;sub&gt;0*&lt;/sub&gt;a&lt;sub&gt;0&lt;/sub&gt;&lt;br&gt;&lt;/font&gt;&lt;/p&gt;" style="verticalAlign=middle;align=center;vsdxID=66;fillColor=#FFFFFF;gradientColor=none;shape=stencil(vVHLDsIgEPwajiQI6RfU+h8bu22JCGRB2/69kG1iazx58DazM/vIjjBtmiCi0CplCjecbZ8nYc5Ca+snJJsLEqYTph0C4Ujh4XvmEaqzont41gkL96naodXKrGF6YSfQtUi0OXXDVlqPfJNP6usotUhYbJIUMmQb/GGrAxpRljVycDBuc1hKM2LclX8/7H9nFfB+82Cd45T2+mcspcSRmu4F);spacingTop=-3;spacingBottom=-1;spacingLeft=-3;spacingRight=-3;labelBackgroundColor=none;rounded=0;html=1;whiteSpace=wrap;" parent="1" vertex="1">
          <mxGeometry x="-32" y="738" width="50" height="28" as="geometry" />
        </mxCell>
        <mxCell id="98p_dCbyfDko-DnN-u34-68" value="&lt;p style=&quot;margin-left: 0 ; margin-right: 0 ; margin-top: 0px ; margin-bottom: 0px ; text-indent: 0 ; direction: ltr&quot;&gt;&lt;font style=&quot;font-family: &amp;#34;cambria math&amp;#34; ; color: rgb(0 , 0 , 0) ; direction: ltr ; letter-spacing: 0px ; line-height: 120% ; opacity: 1 ; font-size: 15px&quot;&gt;a&lt;sub&gt;0&lt;/sub&gt;&lt;/font&gt;&lt;/p&gt;" style="verticalAlign=middle;align=center;vsdxID=66;fillColor=#FFFFFF;gradientColor=none;shape=stencil(vVHLDsIgEPwajiQI6RfU+h8bu22JCGRB2/69kG1iazx58DazM/vIjjBtmiCi0CplCjecbZ8nYc5Ca+snJJsLEqYTph0C4Ujh4XvmEaqzont41gkL96naodXKrGF6YSfQtUi0OXXDVlqPfJNP6usotUhYbJIUMmQb/GGrAxpRljVycDBuc1hKM2LclX8/7H9nFfB+82Cd45T2+mcspcSRmu4F);spacingTop=-3;spacingBottom=-1;spacingLeft=-3;spacingRight=-3;labelBackgroundColor=none;rounded=0;html=1;whiteSpace=wrap;" parent="1" vertex="1">
          <mxGeometry x="-19" y="689" width="22" height="22" as="geometry" />
        </mxCell>
        <mxCell id="98p_dCbyfDko-DnN-u34-69" style="vsdxID=102;edgeStyle=none;startArrow=none;endArrow=classic;startSize=5;endSize=5;strokeColor=#923931;spacingTop=0;spacingBottom=0;spacingLeft=0;spacingRight=0;verticalAlign=middle;html=1;labelBackgroundColor=#ffffff;rounded=0;" parent="1" edge="1">
          <mxGeometry relative="1" as="geometry">
            <Array as="points" />
            <mxPoint x="-8" y="710" as="sourcePoint" />
            <mxPoint x="-8" y="738" as="targetPoint" />
          </mxGeometry>
        </mxCell>
        <mxCell id="98p_dCbyfDko-DnN-u34-71" value="&lt;font style=&quot;letter-spacing: 0px ; font-family: &amp;#34;cambria math&amp;#34; ; direction: ltr ; line-height: 18px ; opacity: 1&quot;&gt;&lt;sub&gt;&lt;span style=&quot;font-size: 15px&quot;&gt;w&lt;sub&gt;0&lt;/sub&gt;&lt;/span&gt;&lt;/sub&gt;&lt;/font&gt;" style="text;html=1;align=center;verticalAlign=middle;resizable=0;points=[];autosize=1;strokeColor=none;" parent="1" vertex="1">
          <mxGeometry x="-39" y="700" width="30" height="30" as="geometry" />
        </mxCell>
        <mxCell id="98p_dCbyfDko-DnN-u34-74" style="vsdxID=85;fillColor=#fff2cc;gradientColor=none;shape=stencil(nZBLDoAgDERP0z3SIyjew0SURgSD+Lu9kMZoXLhwN9O+tukAlrNpJg1SzDH4QW/URgNYgZTkjA4UkwJUgGXng+6DX1zLfmoymdXo17xh5zmRJ6Q42BWCfc2oJfdAr+Yv+AP9Cb7OJ3H/2JG1HNGz/84klThPVCc=);strokeColor=#000000;labelBackgroundColor=none;rounded=0;html=1;whiteSpace=wrap;" parent="1" vertex="1">
          <mxGeometry x="37" y="730" width="65" height="40" as="geometry" />
        </mxCell>
        <mxCell id="98p_dCbyfDko-DnN-u34-75" style="vsdxID=102;edgeStyle=none;startArrow=none;endArrow=classic;startSize=5;endSize=5;strokeColor=#923931;spacingTop=0;spacingBottom=0;spacingLeft=0;spacingRight=0;verticalAlign=middle;html=1;labelBackgroundColor=#ffffff;rounded=0;" parent="1" edge="1">
          <mxGeometry relative="1" as="geometry">
            <Array as="points" />
            <mxPoint x="69" y="770" as="sourcePoint" />
            <mxPoint x="69" y="798" as="targetPoint" />
          </mxGeometry>
        </mxCell>
        <mxCell id="98p_dCbyfDko-DnN-u34-76" value="&lt;p style=&quot;margin-left: 0 ; margin-right: 0 ; margin-top: 0px ; margin-bottom: 0px ; text-indent: 0 ; direction: ltr&quot;&gt;&lt;font style=&quot;font-size: 15px ; font-family: &amp;#34;cambria math&amp;#34; ; color: #000000 ; direction: ltr ; letter-spacing: 0px ; line-height: 120% ; opacity: 1&quot;&gt;w&lt;sub&gt;1*&lt;/sub&gt;a&lt;sub&gt;1&lt;/sub&gt;&lt;br&gt;&lt;/font&gt;&lt;/p&gt;" style="verticalAlign=middle;align=center;vsdxID=66;fillColor=#FFFFFF;gradientColor=none;shape=stencil(vVHLDsIgEPwajiQI6RfU+h8bu22JCGRB2/69kG1iazx58DazM/vIjjBtmiCi0CplCjecbZ8nYc5Ca+snJJsLEqYTph0C4Ujh4XvmEaqzont41gkL96naodXKrGF6YSfQtUi0OXXDVlqPfJNP6usotUhYbJIUMmQb/GGrAxpRljVycDBuc1hKM2LclX8/7H9nFfB+82Cd45T2+mcspcSRmu4F);spacingTop=-3;spacingBottom=-1;spacingLeft=-3;spacingRight=-3;labelBackgroundColor=none;rounded=0;html=1;whiteSpace=wrap;" parent="1" vertex="1">
          <mxGeometry x="44" y="738" width="50" height="28" as="geometry" />
        </mxCell>
        <mxCell id="98p_dCbyfDko-DnN-u34-77" value="&lt;p style=&quot;margin-left: 0 ; margin-right: 0 ; margin-top: 0px ; margin-bottom: 0px ; text-indent: 0 ; direction: ltr&quot;&gt;&lt;font style=&quot;font-size: 15px ; font-family: &amp;#34;cambria math&amp;#34; ; color: #000000 ; direction: ltr ; letter-spacing: 0px ; line-height: 120% ; opacity: 1&quot;&gt;a&lt;sub&gt;1&lt;/sub&gt;&lt;/font&gt;&lt;/p&gt;" style="verticalAlign=middle;align=center;vsdxID=66;fillColor=#FFFFFF;gradientColor=none;shape=stencil(vVHLDsIgEPwajiQI6RfU+h8bu22JCGRB2/69kG1iazx58DazM/vIjjBtmiCi0CplCjecbZ8nYc5Ca+snJJsLEqYTph0C4Ujh4XvmEaqzont41gkL96naodXKrGF6YSfQtUi0OXXDVlqPfJNP6usotUhYbJIUMmQb/GGrAxpRljVycDBuc1hKM2LclX8/7H9nFfB+82Cd45T2+mcspcSRmu4F);spacingTop=-3;spacingBottom=-1;spacingLeft=-3;spacingRight=-3;labelBackgroundColor=none;rounded=0;html=1;whiteSpace=wrap;" parent="1" vertex="1">
          <mxGeometry x="57" y="689" width="22" height="22" as="geometry" />
        </mxCell>
        <mxCell id="98p_dCbyfDko-DnN-u34-78" style="vsdxID=102;edgeStyle=none;startArrow=none;endArrow=classic;startSize=5;endSize=5;strokeColor=#923931;spacingTop=0;spacingBottom=0;spacingLeft=0;spacingRight=0;verticalAlign=middle;html=1;labelBackgroundColor=#ffffff;rounded=0;" parent="1" edge="1">
          <mxGeometry relative="1" as="geometry">
            <Array as="points" />
            <mxPoint x="68" y="710" as="sourcePoint" />
            <mxPoint x="68" y="738" as="targetPoint" />
          </mxGeometry>
        </mxCell>
        <mxCell id="98p_dCbyfDko-DnN-u34-79" value="&lt;font style=&quot;letter-spacing: 0px ; font-family: &amp;#34;cambria math&amp;#34; ; direction: ltr ; line-height: 18px ; opacity: 1&quot;&gt;&lt;sub&gt;&lt;span style=&quot;font-size: 15px&quot;&gt;w&lt;/span&gt;&lt;span style=&quot;font-size: 12.5px&quot;&gt;&lt;sub&gt;1&lt;/sub&gt;&lt;/span&gt;&lt;/sub&gt;&lt;/font&gt;" style="text;html=1;align=center;verticalAlign=middle;resizable=0;points=[];autosize=1;strokeColor=none;" parent="1" vertex="1">
          <mxGeometry x="37" y="700" width="30" height="30" as="geometry" />
        </mxCell>
        <mxCell id="98p_dCbyfDko-DnN-u34-80" style="vsdxID=85;fillColor=#fff2cc;gradientColor=none;shape=stencil(nZBLDoAgDERP0z3SIyjew0SURgSD+Lu9kMZoXLhwN9O+tukAlrNpJg1SzDH4QW/URgNYgZTkjA4UkwJUgGXng+6DX1zLfmoymdXo17xh5zmRJ6Q42BWCfc2oJfdAr+Yv+AP9Cb7OJ3H/2JG1HNGz/84klThPVCc=);strokeColor=#000000;labelBackgroundColor=none;rounded=0;html=1;whiteSpace=wrap;" parent="1" vertex="1">
          <mxGeometry x="113" y="730" width="65" height="40" as="geometry" />
        </mxCell>
        <mxCell id="98p_dCbyfDko-DnN-u34-81" style="vsdxID=102;edgeStyle=none;startArrow=none;endArrow=classic;startSize=5;endSize=5;strokeColor=#923931;spacingTop=0;spacingBottom=0;spacingLeft=0;spacingRight=0;verticalAlign=middle;html=1;labelBackgroundColor=#ffffff;rounded=0;" parent="1" edge="1">
          <mxGeometry relative="1" as="geometry">
            <Array as="points" />
            <mxPoint x="145" y="770" as="sourcePoint" />
            <mxPoint x="145" y="798" as="targetPoint" />
          </mxGeometry>
        </mxCell>
        <mxCell id="98p_dCbyfDko-DnN-u34-82" value="&lt;p style=&quot;margin-left: 0 ; margin-right: 0 ; margin-top: 0px ; margin-bottom: 0px ; text-indent: 0 ; direction: ltr&quot;&gt;&lt;font style=&quot;font-size: 15px ; font-family: &amp;#34;cambria math&amp;#34; ; color: #000000 ; direction: ltr ; letter-spacing: 0px ; line-height: 120% ; opacity: 1&quot;&gt;w&lt;sub&gt;2*&lt;/sub&gt;a&lt;sub&gt;2&lt;/sub&gt;&lt;br&gt;&lt;/font&gt;&lt;/p&gt;" style="verticalAlign=middle;align=center;vsdxID=66;fillColor=#FFFFFF;gradientColor=none;shape=stencil(vVHLDsIgEPwajiQI6RfU+h8bu22JCGRB2/69kG1iazx58DazM/vIjjBtmiCi0CplCjecbZ8nYc5Ca+snJJsLEqYTph0C4Ujh4XvmEaqzont41gkL96naodXKrGF6YSfQtUi0OXXDVlqPfJNP6usotUhYbJIUMmQb/GGrAxpRljVycDBuc1hKM2LclX8/7H9nFfB+82Cd45T2+mcspcSRmu4F);spacingTop=-3;spacingBottom=-1;spacingLeft=-3;spacingRight=-3;labelBackgroundColor=none;rounded=0;html=1;whiteSpace=wrap;" parent="1" vertex="1">
          <mxGeometry x="120" y="738" width="50" height="28" as="geometry" />
        </mxCell>
        <mxCell id="98p_dCbyfDko-DnN-u34-83" value="&lt;p style=&quot;margin-left: 0 ; margin-right: 0 ; margin-top: 0px ; margin-bottom: 0px ; text-indent: 0 ; direction: ltr&quot;&gt;&lt;font style=&quot;font-size: 15px ; font-family: &amp;#34;cambria math&amp;#34; ; color: #000000 ; direction: ltr ; letter-spacing: 0px ; line-height: 120% ; opacity: 1&quot;&gt;a&lt;sub&gt;2&lt;/sub&gt;&lt;/font&gt;&lt;/p&gt;" style="verticalAlign=middle;align=center;vsdxID=66;fillColor=#FFFFFF;gradientColor=none;shape=stencil(vVHLDsIgEPwajiQI6RfU+h8bu22JCGRB2/69kG1iazx58DazM/vIjjBtmiCi0CplCjecbZ8nYc5Ca+snJJsLEqYTph0C4Ujh4XvmEaqzont41gkL96naodXKrGF6YSfQtUi0OXXDVlqPfJNP6usotUhYbJIUMmQb/GGrAxpRljVycDBuc1hKM2LclX8/7H9nFfB+82Cd45T2+mcspcSRmu4F);spacingTop=-3;spacingBottom=-1;spacingLeft=-3;spacingRight=-3;labelBackgroundColor=none;rounded=0;html=1;whiteSpace=wrap;" parent="1" vertex="1">
          <mxGeometry x="133" y="689" width="22" height="22" as="geometry" />
        </mxCell>
        <mxCell id="98p_dCbyfDko-DnN-u34-84" style="vsdxID=102;edgeStyle=none;startArrow=none;endArrow=classic;startSize=5;endSize=5;strokeColor=#923931;spacingTop=0;spacingBottom=0;spacingLeft=0;spacingRight=0;verticalAlign=middle;html=1;labelBackgroundColor=#ffffff;rounded=0;" parent="1" edge="1">
          <mxGeometry relative="1" as="geometry">
            <Array as="points" />
            <mxPoint x="144" y="710" as="sourcePoint" />
            <mxPoint x="144" y="738" as="targetPoint" />
          </mxGeometry>
        </mxCell>
        <mxCell id="98p_dCbyfDko-DnN-u34-85" value="&lt;font style=&quot;letter-spacing: 0px ; font-family: &amp;#34;cambria math&amp;#34; ; direction: ltr ; line-height: 18px ; opacity: 1&quot;&gt;&lt;sub&gt;&lt;span style=&quot;font-size: 15px&quot;&gt;w&lt;sub&gt;2&lt;/sub&gt;&lt;/span&gt;&lt;/sub&gt;&lt;/font&gt;" style="text;html=1;align=center;verticalAlign=middle;resizable=0;points=[];autosize=1;strokeColor=none;" parent="1" vertex="1">
          <mxGeometry x="113" y="700" width="30" height="30" as="geometry" />
        </mxCell>
        <mxCell id="98p_dCbyfDko-DnN-u34-92" style="vsdxID=85;fillColor=#fff2cc;gradientColor=none;shape=stencil(nZBLDoAgDERP0z3SIyjew0SURgSD+Lu9kMZoXLhwN9O+tukAlrNpJg1SzDH4QW/URgNYgZTkjA4UkwJUgGXng+6DX1zLfmoymdXo17xh5zmRJ6Q42BWCfc2oJfdAr+Yv+AP9Cb7OJ3H/2JG1HNGz/84klThPVCc=);strokeColor=#000000;labelBackgroundColor=none;rounded=0;html=1;whiteSpace=wrap;" parent="1" vertex="1">
          <mxGeometry x="189" y="729" width="65" height="40" as="geometry" />
        </mxCell>
        <mxCell id="98p_dCbyfDko-DnN-u34-93" style="vsdxID=102;edgeStyle=none;startArrow=none;endArrow=classic;startSize=5;endSize=5;strokeColor=#923931;spacingTop=0;spacingBottom=0;spacingLeft=0;spacingRight=0;verticalAlign=middle;html=1;labelBackgroundColor=#ffffff;rounded=0;" parent="1" edge="1">
          <mxGeometry relative="1" as="geometry">
            <Array as="points" />
            <mxPoint x="221" y="769" as="sourcePoint" />
            <mxPoint x="221" y="797" as="targetPoint" />
          </mxGeometry>
        </mxCell>
        <mxCell id="98p_dCbyfDko-DnN-u34-94" value="&lt;p style=&quot;margin-left: 0 ; margin-right: 0 ; margin-top: 0px ; margin-bottom: 0px ; text-indent: 0 ; direction: ltr&quot;&gt;&lt;font style=&quot;font-size: 15px ; font-family: &amp;#34;cambria math&amp;#34; ; color: #000000 ; direction: ltr ; letter-spacing: 0px ; line-height: 120% ; opacity: 1&quot;&gt;w&lt;sub&gt;3*&lt;/sub&gt;a&lt;sub&gt;3&lt;/sub&gt;&lt;br&gt;&lt;/font&gt;&lt;/p&gt;" style="verticalAlign=middle;align=center;vsdxID=66;fillColor=#FFFFFF;gradientColor=none;shape=stencil(vVHLDsIgEPwajiQI6RfU+h8bu22JCGRB2/69kG1iazx58DazM/vIjjBtmiCi0CplCjecbZ8nYc5Ca+snJJsLEqYTph0C4Ujh4XvmEaqzont41gkL96naodXKrGF6YSfQtUi0OXXDVlqPfJNP6usotUhYbJIUMmQb/GGrAxpRljVycDBuc1hKM2LclX8/7H9nFfB+82Cd45T2+mcspcSRmu4F);spacingTop=-3;spacingBottom=-1;spacingLeft=-3;spacingRight=-3;labelBackgroundColor=none;rounded=0;html=1;whiteSpace=wrap;" parent="1" vertex="1">
          <mxGeometry x="196" y="737" width="50" height="28" as="geometry" />
        </mxCell>
        <mxCell id="98p_dCbyfDko-DnN-u34-95" value="&lt;p style=&quot;margin-left: 0 ; margin-right: 0 ; margin-top: 0px ; margin-bottom: 0px ; text-indent: 0 ; direction: ltr&quot;&gt;&lt;font style=&quot;font-size: 15px ; font-family: &amp;#34;cambria math&amp;#34; ; color: #000000 ; direction: ltr ; letter-spacing: 0px ; line-height: 120% ; opacity: 1&quot;&gt;a&lt;sub&gt;3&lt;/sub&gt;&lt;/font&gt;&lt;/p&gt;" style="verticalAlign=middle;align=center;vsdxID=66;fillColor=#FFFFFF;gradientColor=none;shape=stencil(vVHLDsIgEPwajiQI6RfU+h8bu22JCGRB2/69kG1iazx58DazM/vIjjBtmiCi0CplCjecbZ8nYc5Ca+snJJsLEqYTph0C4Ujh4XvmEaqzont41gkL96naodXKrGF6YSfQtUi0OXXDVlqPfJNP6usotUhYbJIUMmQb/GGrAxpRljVycDBuc1hKM2LclX8/7H9nFfB+82Cd45T2+mcspcSRmu4F);spacingTop=-3;spacingBottom=-1;spacingLeft=-3;spacingRight=-3;labelBackgroundColor=none;rounded=0;html=1;whiteSpace=wrap;" parent="1" vertex="1">
          <mxGeometry x="209" y="688" width="22" height="22" as="geometry" />
        </mxCell>
        <mxCell id="98p_dCbyfDko-DnN-u34-96" style="vsdxID=102;edgeStyle=none;startArrow=none;endArrow=classic;startSize=5;endSize=5;strokeColor=#923931;spacingTop=0;spacingBottom=0;spacingLeft=0;spacingRight=0;verticalAlign=middle;html=1;labelBackgroundColor=#ffffff;rounded=0;" parent="1" edge="1">
          <mxGeometry relative="1" as="geometry">
            <Array as="points" />
            <mxPoint x="220" y="709" as="sourcePoint" />
            <mxPoint x="220" y="737" as="targetPoint" />
          </mxGeometry>
        </mxCell>
        <mxCell id="98p_dCbyfDko-DnN-u34-97" value="&lt;font style=&quot;letter-spacing: 0px ; font-family: &amp;#34;cambria math&amp;#34; ; direction: ltr ; line-height: 18px ; opacity: 1&quot;&gt;&lt;sub&gt;&lt;span style=&quot;font-size: 15px&quot;&gt;w&lt;sub&gt;3&lt;/sub&gt;&lt;/span&gt;&lt;/sub&gt;&lt;/font&gt;" style="text;html=1;align=center;verticalAlign=middle;resizable=0;points=[];autosize=1;strokeColor=none;" parent="1" vertex="1">
          <mxGeometry x="189" y="699" width="30" height="30" as="geometry" />
        </mxCell>
        <mxCell id="98p_dCbyfDko-DnN-u34-98" style="vsdxID=85;fillColor=#fff2cc;gradientColor=none;shape=stencil(nZBLDoAgDERP0z3SIyjew0SURgSD+Lu9kMZoXLhwN9O+tukAlrNpJg1SzDH4QW/URgNYgZTkjA4UkwJUgGXng+6DX1zLfmoymdXo17xh5zmRJ6Q42BWCfc2oJfdAr+Yv+AP9Cb7OJ3H/2JG1HNGz/84klThPVCc=);strokeColor=#000000;labelBackgroundColor=none;rounded=0;html=1;whiteSpace=wrap;" parent="1" vertex="1">
          <mxGeometry x="264" y="729" width="65" height="40" as="geometry" />
        </mxCell>
        <mxCell id="98p_dCbyfDko-DnN-u34-99" style="vsdxID=102;edgeStyle=none;startArrow=none;endArrow=classic;startSize=5;endSize=5;strokeColor=#923931;spacingTop=0;spacingBottom=0;spacingLeft=0;spacingRight=0;verticalAlign=middle;html=1;labelBackgroundColor=#ffffff;rounded=0;" parent="1" edge="1">
          <mxGeometry relative="1" as="geometry">
            <Array as="points" />
            <mxPoint x="296" y="769" as="sourcePoint" />
            <mxPoint x="296" y="797" as="targetPoint" />
          </mxGeometry>
        </mxCell>
        <mxCell id="98p_dCbyfDko-DnN-u34-100" value="&lt;p style=&quot;margin-left: 0 ; margin-right: 0 ; margin-top: 0px ; margin-bottom: 0px ; text-indent: 0 ; direction: ltr&quot;&gt;&lt;font style=&quot;font-size: 15px ; font-family: &amp;#34;cambria math&amp;#34; ; color: #000000 ; direction: ltr ; letter-spacing: 0px ; line-height: 120% ; opacity: 1&quot;&gt;w&lt;sub&gt;4*&lt;/sub&gt;a&lt;sub&gt;4&lt;/sub&gt;&lt;br&gt;&lt;/font&gt;&lt;/p&gt;" style="verticalAlign=middle;align=center;vsdxID=66;fillColor=#FFFFFF;gradientColor=none;shape=stencil(vVHLDsIgEPwajiQI6RfU+h8bu22JCGRB2/69kG1iazx58DazM/vIjjBtmiCi0CplCjecbZ8nYc5Ca+snJJsLEqYTph0C4Ujh4XvmEaqzont41gkL96naodXKrGF6YSfQtUi0OXXDVlqPfJNP6usotUhYbJIUMmQb/GGrAxpRljVycDBuc1hKM2LclX8/7H9nFfB+82Cd45T2+mcspcSRmu4F);spacingTop=-3;spacingBottom=-1;spacingLeft=-3;spacingRight=-3;labelBackgroundColor=none;rounded=0;html=1;whiteSpace=wrap;" parent="1" vertex="1">
          <mxGeometry x="271" y="737" width="50" height="28" as="geometry" />
        </mxCell>
        <mxCell id="98p_dCbyfDko-DnN-u34-101" value="&lt;p style=&quot;margin-left: 0 ; margin-right: 0 ; margin-top: 0px ; margin-bottom: 0px ; text-indent: 0 ; direction: ltr&quot;&gt;&lt;font style=&quot;font-size: 15px ; font-family: &amp;#34;cambria math&amp;#34; ; color: #000000 ; direction: ltr ; letter-spacing: 0px ; line-height: 120% ; opacity: 1&quot;&gt;a&lt;sub&gt;4&lt;/sub&gt;&lt;/font&gt;&lt;/p&gt;" style="verticalAlign=middle;align=center;vsdxID=66;fillColor=#FFFFFF;gradientColor=none;shape=stencil(vVHLDsIgEPwajiQI6RfU+h8bu22JCGRB2/69kG1iazx58DazM/vIjjBtmiCi0CplCjecbZ8nYc5Ca+snJJsLEqYTph0C4Ujh4XvmEaqzont41gkL96naodXKrGF6YSfQtUi0OXXDVlqPfJNP6usotUhYbJIUMmQb/GGrAxpRljVycDBuc1hKM2LclX8/7H9nFfB+82Cd45T2+mcspcSRmu4F);spacingTop=-3;spacingBottom=-1;spacingLeft=-3;spacingRight=-3;labelBackgroundColor=none;rounded=0;html=1;whiteSpace=wrap;" parent="1" vertex="1">
          <mxGeometry x="284" y="688" width="22" height="22" as="geometry" />
        </mxCell>
        <mxCell id="98p_dCbyfDko-DnN-u34-102" style="vsdxID=102;edgeStyle=none;startArrow=none;endArrow=classic;startSize=5;endSize=5;strokeColor=#923931;spacingTop=0;spacingBottom=0;spacingLeft=0;spacingRight=0;verticalAlign=middle;html=1;labelBackgroundColor=#ffffff;rounded=0;" parent="1" edge="1">
          <mxGeometry relative="1" as="geometry">
            <Array as="points" />
            <mxPoint x="295" y="709" as="sourcePoint" />
            <mxPoint x="295" y="737" as="targetPoint" />
          </mxGeometry>
        </mxCell>
        <mxCell id="98p_dCbyfDko-DnN-u34-103" value="&lt;font style=&quot;letter-spacing: 0px ; font-family: &amp;#34;cambria math&amp;#34; ; direction: ltr ; line-height: 18px ; opacity: 1&quot;&gt;&lt;sub&gt;&lt;span style=&quot;font-size: 15px&quot;&gt;w&lt;sub&gt;4&lt;/sub&gt;&lt;/span&gt;&lt;/sub&gt;&lt;/font&gt;" style="text;html=1;align=center;verticalAlign=middle;resizable=0;points=[];autosize=1;strokeColor=none;" parent="1" vertex="1">
          <mxGeometry x="264" y="699" width="30" height="30" as="geometry" />
        </mxCell>
        <mxCell id="98p_dCbyfDko-DnN-u34-104" style="vsdxID=85;fillColor=#fff2cc;gradientColor=none;shape=stencil(nZBLDoAgDERP0z3SIyjew0SURgSD+Lu9kMZoXLhwN9O+tukAlrNpJg1SzDH4QW/URgNYgZTkjA4UkwJUgGXng+6DX1zLfmoymdXo17xh5zmRJ6Q42BWCfc2oJfdAr+Yv+AP9Cb7OJ3H/2JG1HNGz/84klThPVCc=);strokeColor=#000000;labelBackgroundColor=none;rounded=0;html=1;whiteSpace=wrap;" parent="1" vertex="1">
          <mxGeometry x="339" y="728" width="65" height="40" as="geometry" />
        </mxCell>
        <mxCell id="98p_dCbyfDko-DnN-u34-105" style="vsdxID=102;edgeStyle=none;startArrow=none;endArrow=classic;startSize=5;endSize=5;strokeColor=#923931;spacingTop=0;spacingBottom=0;spacingLeft=0;spacingRight=0;verticalAlign=middle;html=1;labelBackgroundColor=#ffffff;rounded=0;" parent="1" edge="1">
          <mxGeometry relative="1" as="geometry">
            <Array as="points" />
            <mxPoint x="371" y="768" as="sourcePoint" />
            <mxPoint x="371" y="796" as="targetPoint" />
          </mxGeometry>
        </mxCell>
        <mxCell id="98p_dCbyfDko-DnN-u34-106" value="&lt;p style=&quot;margin-left: 0 ; margin-right: 0 ; margin-top: 0px ; margin-bottom: 0px ; text-indent: 0 ; direction: ltr&quot;&gt;&lt;font style=&quot;font-size: 15px ; font-family: &amp;#34;cambria math&amp;#34; ; color: #000000 ; direction: ltr ; letter-spacing: 0px ; line-height: 120% ; opacity: 1&quot;&gt;w&lt;sub&gt;5*&lt;/sub&gt;a&lt;sub&gt;5&lt;/sub&gt;&lt;br&gt;&lt;/font&gt;&lt;/p&gt;" style="verticalAlign=middle;align=center;vsdxID=66;fillColor=#FFFFFF;gradientColor=none;shape=stencil(vVHLDsIgEPwajiQI6RfU+h8bu22JCGRB2/69kG1iazx58DazM/vIjjBtmiCi0CplCjecbZ8nYc5Ca+snJJsLEqYTph0C4Ujh4XvmEaqzont41gkL96naodXKrGF6YSfQtUi0OXXDVlqPfJNP6usotUhYbJIUMmQb/GGrAxpRljVycDBuc1hKM2LclX8/7H9nFfB+82Cd45T2+mcspcSRmu4F);spacingTop=-3;spacingBottom=-1;spacingLeft=-3;spacingRight=-3;labelBackgroundColor=none;rounded=0;html=1;whiteSpace=wrap;" parent="1" vertex="1">
          <mxGeometry x="346" y="736" width="50" height="28" as="geometry" />
        </mxCell>
        <mxCell id="98p_dCbyfDko-DnN-u34-107" value="&lt;p style=&quot;margin-left: 0 ; margin-right: 0 ; margin-top: 0px ; margin-bottom: 0px ; text-indent: 0 ; direction: ltr&quot;&gt;&lt;font style=&quot;font-size: 15px ; font-family: &amp;#34;cambria math&amp;#34; ; color: #000000 ; direction: ltr ; letter-spacing: 0px ; line-height: 120% ; opacity: 1&quot;&gt;a&lt;sub&gt;5&lt;/sub&gt;&lt;/font&gt;&lt;/p&gt;" style="verticalAlign=middle;align=center;vsdxID=66;fillColor=#FFFFFF;gradientColor=none;shape=stencil(vVHLDsIgEPwajiQI6RfU+h8bu22JCGRB2/69kG1iazx58DazM/vIjjBtmiCi0CplCjecbZ8nYc5Ca+snJJsLEqYTph0C4Ujh4XvmEaqzont41gkL96naodXKrGF6YSfQtUi0OXXDVlqPfJNP6usotUhYbJIUMmQb/GGrAxpRljVycDBuc1hKM2LclX8/7H9nFfB+82Cd45T2+mcspcSRmu4F);spacingTop=-3;spacingBottom=-1;spacingLeft=-3;spacingRight=-3;labelBackgroundColor=none;rounded=0;html=1;whiteSpace=wrap;" parent="1" vertex="1">
          <mxGeometry x="359" y="687" width="22" height="22" as="geometry" />
        </mxCell>
        <mxCell id="98p_dCbyfDko-DnN-u34-108" style="vsdxID=102;edgeStyle=none;startArrow=none;endArrow=classic;startSize=5;endSize=5;strokeColor=#923931;spacingTop=0;spacingBottom=0;spacingLeft=0;spacingRight=0;verticalAlign=middle;html=1;labelBackgroundColor=#ffffff;rounded=0;" parent="1" edge="1">
          <mxGeometry relative="1" as="geometry">
            <Array as="points" />
            <mxPoint x="370" y="708" as="sourcePoint" />
            <mxPoint x="370" y="736" as="targetPoint" />
          </mxGeometry>
        </mxCell>
        <mxCell id="98p_dCbyfDko-DnN-u34-109" value="&lt;font style=&quot;letter-spacing: 0px ; font-family: &amp;#34;cambria math&amp;#34; ; direction: ltr ; line-height: 18px ; opacity: 1&quot;&gt;&lt;sub&gt;&lt;span style=&quot;font-size: 15px&quot;&gt;w&lt;sub&gt;5&lt;/sub&gt;&lt;/span&gt;&lt;/sub&gt;&lt;/font&gt;" style="text;html=1;align=center;verticalAlign=middle;resizable=0;points=[];autosize=1;strokeColor=none;" parent="1" vertex="1">
          <mxGeometry x="339" y="698" width="30" height="30" as="geometry" />
        </mxCell>
        <mxCell id="98p_dCbyfDko-DnN-u34-110" style="vsdxID=85;fillColor=#fff2cc;gradientColor=none;shape=stencil(nZBLDoAgDERP0z3SIyjew0SURgSD+Lu9kMZoXLhwN9O+tukAlrNpJg1SzDH4QW/URgNYgZTkjA4UkwJUgGXng+6DX1zLfmoymdXo17xh5zmRJ6Q42BWCfc2oJfdAr+Yv+AP9Cb7OJ3H/2JG1HNGz/84klThPVCc=);strokeColor=#000000;labelBackgroundColor=none;rounded=0;html=1;whiteSpace=wrap;" parent="1" vertex="1">
          <mxGeometry x="417" y="728" width="65" height="40" as="geometry" />
        </mxCell>
        <mxCell id="98p_dCbyfDko-DnN-u34-111" style="vsdxID=102;edgeStyle=none;startArrow=none;endArrow=classic;startSize=5;endSize=5;strokeColor=#923931;spacingTop=0;spacingBottom=0;spacingLeft=0;spacingRight=0;verticalAlign=middle;html=1;labelBackgroundColor=#ffffff;rounded=0;" parent="1" edge="1">
          <mxGeometry relative="1" as="geometry">
            <Array as="points" />
            <mxPoint x="449" y="768" as="sourcePoint" />
            <mxPoint x="449" y="796" as="targetPoint" />
          </mxGeometry>
        </mxCell>
        <mxCell id="98p_dCbyfDko-DnN-u34-112" value="&lt;p style=&quot;margin-left: 0 ; margin-right: 0 ; margin-top: 0px ; margin-bottom: 0px ; text-indent: 0 ; direction: ltr&quot;&gt;&lt;font style=&quot;font-size: 15px ; font-family: &amp;#34;cambria math&amp;#34; ; color: #000000 ; direction: ltr ; letter-spacing: 0px ; line-height: 120% ; opacity: 1&quot;&gt;w&lt;sub&gt;6*&lt;/sub&gt;a&lt;sub&gt;6&lt;/sub&gt;&lt;br&gt;&lt;/font&gt;&lt;/p&gt;" style="verticalAlign=middle;align=center;vsdxID=66;fillColor=#FFFFFF;gradientColor=none;shape=stencil(vVHLDsIgEPwajiQI6RfU+h8bu22JCGRB2/69kG1iazx58DazM/vIjjBtmiCi0CplCjecbZ8nYc5Ca+snJJsLEqYTph0C4Ujh4XvmEaqzont41gkL96naodXKrGF6YSfQtUi0OXXDVlqPfJNP6usotUhYbJIUMmQb/GGrAxpRljVycDBuc1hKM2LclX8/7H9nFfB+82Cd45T2+mcspcSRmu4F);spacingTop=-3;spacingBottom=-1;spacingLeft=-3;spacingRight=-3;labelBackgroundColor=none;rounded=0;html=1;whiteSpace=wrap;" parent="1" vertex="1">
          <mxGeometry x="424" y="736" width="50" height="28" as="geometry" />
        </mxCell>
        <mxCell id="98p_dCbyfDko-DnN-u34-113" value="&lt;p style=&quot;margin-left: 0 ; margin-right: 0 ; margin-top: 0px ; margin-bottom: 0px ; text-indent: 0 ; direction: ltr&quot;&gt;&lt;font style=&quot;font-size: 15px ; font-family: &amp;#34;cambria math&amp;#34; ; color: #000000 ; direction: ltr ; letter-spacing: 0px ; line-height: 120% ; opacity: 1&quot;&gt;a&lt;sub&gt;6&lt;/sub&gt;&lt;/font&gt;&lt;/p&gt;" style="verticalAlign=middle;align=center;vsdxID=66;fillColor=#FFFFFF;gradientColor=none;shape=stencil(vVHLDsIgEPwajiQI6RfU+h8bu22JCGRB2/69kG1iazx58DazM/vIjjBtmiCi0CplCjecbZ8nYc5Ca+snJJsLEqYTph0C4Ujh4XvmEaqzont41gkL96naodXKrGF6YSfQtUi0OXXDVlqPfJNP6usotUhYbJIUMmQb/GGrAxpRljVycDBuc1hKM2LclX8/7H9nFfB+82Cd45T2+mcspcSRmu4F);spacingTop=-3;spacingBottom=-1;spacingLeft=-3;spacingRight=-3;labelBackgroundColor=none;rounded=0;html=1;whiteSpace=wrap;" parent="1" vertex="1">
          <mxGeometry x="437" y="687" width="22" height="22" as="geometry" />
        </mxCell>
        <mxCell id="98p_dCbyfDko-DnN-u34-114" style="vsdxID=102;edgeStyle=none;startArrow=none;endArrow=classic;startSize=5;endSize=5;strokeColor=#923931;spacingTop=0;spacingBottom=0;spacingLeft=0;spacingRight=0;verticalAlign=middle;html=1;labelBackgroundColor=#ffffff;rounded=0;" parent="1" edge="1">
          <mxGeometry relative="1" as="geometry">
            <Array as="points" />
            <mxPoint x="448" y="708" as="sourcePoint" />
            <mxPoint x="448" y="736" as="targetPoint" />
          </mxGeometry>
        </mxCell>
        <mxCell id="98p_dCbyfDko-DnN-u34-115" value="&lt;font style=&quot;letter-spacing: 0px ; font-family: &amp;#34;cambria math&amp;#34; ; direction: ltr ; line-height: 18px ; opacity: 1&quot;&gt;&lt;sub&gt;&lt;span style=&quot;font-size: 15px&quot;&gt;w&lt;sub&gt;6&lt;/sub&gt;&lt;/span&gt;&lt;/sub&gt;&lt;/font&gt;" style="text;html=1;align=center;verticalAlign=middle;resizable=0;points=[];autosize=1;strokeColor=none;" parent="1" vertex="1">
          <mxGeometry x="417" y="698" width="30" height="30" as="geometry" />
        </mxCell>
        <mxCell id="98p_dCbyfDko-DnN-u34-116" style="vsdxID=85;fillColor=#fff2cc;gradientColor=none;shape=stencil(nZBLDoAgDERP0z3SIyjew0SURgSD+Lu9kMZoXLhwN9O+tukAlrNpJg1SzDH4QW/URgNYgZTkjA4UkwJUgGXng+6DX1zLfmoymdXo17xh5zmRJ6Q42BWCfc2oJfdAr+Yv+AP9Cb7OJ3H/2JG1HNGz/84klThPVCc=);strokeColor=#000000;labelBackgroundColor=none;rounded=0;html=1;whiteSpace=wrap;" parent="1" vertex="1">
          <mxGeometry x="494" y="728" width="65" height="40" as="geometry" />
        </mxCell>
        <mxCell id="98p_dCbyfDko-DnN-u34-117" style="vsdxID=102;edgeStyle=none;startArrow=none;endArrow=classic;startSize=5;endSize=5;strokeColor=#923931;spacingTop=0;spacingBottom=0;spacingLeft=0;spacingRight=0;verticalAlign=middle;html=1;labelBackgroundColor=#ffffff;rounded=0;" parent="1" edge="1">
          <mxGeometry relative="1" as="geometry">
            <Array as="points" />
            <mxPoint x="526" y="768" as="sourcePoint" />
            <mxPoint x="526" y="796" as="targetPoint" />
          </mxGeometry>
        </mxCell>
        <mxCell id="98p_dCbyfDko-DnN-u34-118" value="&lt;p style=&quot;margin-left: 0 ; margin-right: 0 ; margin-top: 0px ; margin-bottom: 0px ; text-indent: 0 ; direction: ltr&quot;&gt;&lt;font style=&quot;font-size: 15px ; font-family: &amp;#34;cambria math&amp;#34; ; color: #000000 ; direction: ltr ; letter-spacing: 0px ; line-height: 120% ; opacity: 1&quot;&gt;w&lt;sub&gt;7*&lt;/sub&gt;a&lt;sub&gt;7&lt;/sub&gt;&lt;br&gt;&lt;/font&gt;&lt;/p&gt;" style="verticalAlign=middle;align=center;vsdxID=66;fillColor=#FFFFFF;gradientColor=none;shape=stencil(vVHLDsIgEPwajiQI6RfU+h8bu22JCGRB2/69kG1iazx58DazM/vIjjBtmiCi0CplCjecbZ8nYc5Ca+snJJsLEqYTph0C4Ujh4XvmEaqzont41gkL96naodXKrGF6YSfQtUi0OXXDVlqPfJNP6usotUhYbJIUMmQb/GGrAxpRljVycDBuc1hKM2LclX8/7H9nFfB+82Cd45T2+mcspcSRmu4F);spacingTop=-3;spacingBottom=-1;spacingLeft=-3;spacingRight=-3;labelBackgroundColor=none;rounded=0;html=1;whiteSpace=wrap;" parent="1" vertex="1">
          <mxGeometry x="501" y="736" width="50" height="28" as="geometry" />
        </mxCell>
        <mxCell id="98p_dCbyfDko-DnN-u34-119" value="&lt;p style=&quot;margin-left: 0 ; margin-right: 0 ; margin-top: 0px ; margin-bottom: 0px ; text-indent: 0 ; direction: ltr&quot;&gt;&lt;font style=&quot;font-size: 15px ; font-family: &amp;#34;cambria math&amp;#34; ; color: #000000 ; direction: ltr ; letter-spacing: 0px ; line-height: 120% ; opacity: 1&quot;&gt;a&lt;sub&gt;7&lt;/sub&gt;&lt;/font&gt;&lt;/p&gt;" style="verticalAlign=middle;align=center;vsdxID=66;fillColor=#FFFFFF;gradientColor=none;shape=stencil(vVHLDsIgEPwajiQI6RfU+h8bu22JCGRB2/69kG1iazx58DazM/vIjjBtmiCi0CplCjecbZ8nYc5Ca+snJJsLEqYTph0C4Ujh4XvmEaqzont41gkL96naodXKrGF6YSfQtUi0OXXDVlqPfJNP6usotUhYbJIUMmQb/GGrAxpRljVycDBuc1hKM2LclX8/7H9nFfB+82Cd45T2+mcspcSRmu4F);spacingTop=-3;spacingBottom=-1;spacingLeft=-3;spacingRight=-3;labelBackgroundColor=none;rounded=0;html=1;whiteSpace=wrap;" parent="1" vertex="1">
          <mxGeometry x="514" y="687" width="22" height="22" as="geometry" />
        </mxCell>
        <mxCell id="98p_dCbyfDko-DnN-u34-120" style="vsdxID=102;edgeStyle=none;startArrow=none;endArrow=classic;startSize=5;endSize=5;strokeColor=#923931;spacingTop=0;spacingBottom=0;spacingLeft=0;spacingRight=0;verticalAlign=middle;html=1;labelBackgroundColor=#ffffff;rounded=0;" parent="1" edge="1">
          <mxGeometry relative="1" as="geometry">
            <Array as="points" />
            <mxPoint x="525" y="708" as="sourcePoint" />
            <mxPoint x="525" y="736" as="targetPoint" />
          </mxGeometry>
        </mxCell>
        <mxCell id="98p_dCbyfDko-DnN-u34-121" value="&lt;font style=&quot;letter-spacing: 0px ; font-family: &amp;#34;cambria math&amp;#34; ; direction: ltr ; line-height: 18px ; opacity: 1&quot;&gt;&lt;sub&gt;&lt;span style=&quot;font-size: 15px&quot;&gt;w&lt;sub&gt;7&lt;/sub&gt;&lt;/span&gt;&lt;/sub&gt;&lt;/font&gt;" style="text;html=1;align=center;verticalAlign=middle;resizable=0;points=[];autosize=1;strokeColor=none;" parent="1" vertex="1">
          <mxGeometry x="494" y="698" width="30" height="30" as="geometry" />
        </mxCell>
        <mxCell id="98p_dCbyfDko-DnN-u34-122" value="&lt;font style=&quot;font-size: 22px;&quot;&gt;a&lt;sub&gt;i&amp;nbsp;&lt;/sub&gt;:Indicateurs&lt;br&gt;w&lt;/font&gt;&lt;font size=&quot;1&quot; face=&quot;cambria math&quot; style=&quot;&quot;&gt;&lt;sub style=&quot;font-size: 19px;&quot;&gt;i&lt;/sub&gt;&lt;/font&gt;&lt;font style=&quot;&quot;&gt;&lt;span style=&quot;font-size: 22px;&quot;&gt;: Poids&lt;/span&gt;&lt;br&gt;&lt;/font&gt;" style="text;html=1;align=center;verticalAlign=middle;resizable=0;points=[];autosize=1;strokeColor=default;" parent="1" vertex="1">
          <mxGeometry x="6" y="1094" width="160" height="70" as="geometry" />
        </mxCell>
        <mxCell id="98p_dCbyfDko-DnN-u34-139" value="&lt;font face=&quot;cambria math&quot;&gt;&lt;span style=&quot;font-size: 15px&quot;&gt;1&lt;/span&gt;&lt;/font&gt;" style="text;html=1;align=center;verticalAlign=middle;resizable=0;points=[];autosize=1;strokeColor=none;" parent="1" vertex="1">
          <mxGeometry x="-29" y="849" width="20" height="20" as="geometry" />
        </mxCell>
        <mxCell id="98p_dCbyfDko-DnN-u34-141" value="&lt;font face=&quot;cambria math&quot;&gt;&lt;span style=&quot;font-size: 15px&quot;&gt;1&lt;/span&gt;&lt;/font&gt;" style="text;html=1;align=center;verticalAlign=middle;resizable=0;points=[];autosize=1;strokeColor=none;" parent="1" vertex="1">
          <mxGeometry x="44" y="844" width="20" height="20" as="geometry" />
        </mxCell>
        <mxCell id="98p_dCbyfDko-DnN-u34-143" value="&lt;span style=&quot;font-family: &amp;#34;cambria math&amp;#34; ; font-size: 15px&quot;&gt;1&lt;/span&gt;" style="text;html=1;align=center;verticalAlign=middle;resizable=0;points=[];autosize=1;strokeColor=none;" parent="1" vertex="1">
          <mxGeometry x="120" y="844" width="20" height="20" as="geometry" />
        </mxCell>
        <mxCell id="98p_dCbyfDko-DnN-u34-144" style="vsdxID=102;edgeStyle=none;startArrow=none;endArrow=classic;startSize=5;endSize=5;strokeColor=#923931;spacingTop=0;spacingBottom=0;spacingLeft=0;spacingRight=0;verticalAlign=middle;html=1;labelBackgroundColor=#ffffff;rounded=0;" parent="1" edge="1">
          <mxGeometry relative="1" as="geometry">
            <Array as="points" />
            <mxPoint x="222" y="848" as="sourcePoint" />
            <mxPoint x="222" y="876" as="targetPoint" />
          </mxGeometry>
        </mxCell>
        <mxCell id="98p_dCbyfDko-DnN-u34-145" value="&lt;font face=&quot;cambria math&quot;&gt;&lt;span style=&quot;font-size: 15px&quot;&gt;1&lt;/span&gt;&lt;/font&gt;" style="text;html=1;align=center;verticalAlign=middle;resizable=0;points=[];autosize=1;strokeColor=none;" parent="1" vertex="1">
          <mxGeometry x="196" y="843" width="20" height="20" as="geometry" />
        </mxCell>
        <mxCell id="98p_dCbyfDko-DnN-u34-146" style="vsdxID=102;edgeStyle=none;startArrow=none;endArrow=classic;startSize=5;endSize=5;strokeColor=#923931;spacingTop=0;spacingBottom=0;spacingLeft=0;spacingRight=0;verticalAlign=middle;html=1;labelBackgroundColor=#ffffff;rounded=0;" parent="1" edge="1">
          <mxGeometry relative="1" as="geometry">
            <Array as="points" />
            <mxPoint x="297" y="848" as="sourcePoint" />
            <mxPoint x="297" y="876" as="targetPoint" />
          </mxGeometry>
        </mxCell>
        <mxCell id="98p_dCbyfDko-DnN-u34-147" value="&lt;font face=&quot;cambria math&quot;&gt;&lt;span style=&quot;font-size: 15px&quot;&gt;1&lt;/span&gt;&lt;/font&gt;" style="text;html=1;align=center;verticalAlign=middle;resizable=0;points=[];autosize=1;strokeColor=none;" parent="1" vertex="1">
          <mxGeometry x="271" y="843" width="20" height="20" as="geometry" />
        </mxCell>
        <mxCell id="98p_dCbyfDko-DnN-u34-148" style="vsdxID=102;edgeStyle=none;startArrow=none;endArrow=classic;startSize=5;endSize=5;strokeColor=#923931;spacingTop=0;spacingBottom=0;spacingLeft=0;spacingRight=0;verticalAlign=middle;html=1;labelBackgroundColor=#ffffff;rounded=0;" parent="1" edge="1">
          <mxGeometry relative="1" as="geometry">
            <Array as="points" />
            <mxPoint x="372" y="847" as="sourcePoint" />
            <mxPoint x="372" y="875" as="targetPoint" />
          </mxGeometry>
        </mxCell>
        <mxCell id="98p_dCbyfDko-DnN-u34-149" value="&lt;font face=&quot;cambria math&quot;&gt;&lt;span style=&quot;font-size: 15px&quot;&gt;-1&lt;/span&gt;&lt;/font&gt;" style="text;html=1;align=center;verticalAlign=middle;resizable=0;points=[];autosize=1;strokeColor=none;" parent="1" vertex="1">
          <mxGeometry x="341" y="842" width="30" height="20" as="geometry" />
        </mxCell>
        <mxCell id="98p_dCbyfDko-DnN-u34-150" style="vsdxID=102;edgeStyle=none;startArrow=none;endArrow=classic;startSize=5;endSize=5;strokeColor=#923931;spacingTop=0;spacingBottom=0;spacingLeft=0;spacingRight=0;verticalAlign=middle;html=1;labelBackgroundColor=#ffffff;rounded=0;" parent="1" edge="1">
          <mxGeometry relative="1" as="geometry">
            <Array as="points" />
            <mxPoint x="450" y="847" as="sourcePoint" />
            <mxPoint x="450" y="875" as="targetPoint" />
          </mxGeometry>
        </mxCell>
        <mxCell id="98p_dCbyfDko-DnN-u34-151" value="&lt;font face=&quot;cambria math&quot;&gt;&lt;span style=&quot;font-size: 15px&quot;&gt;-1&lt;/span&gt;&lt;/font&gt;" style="text;html=1;align=center;verticalAlign=middle;resizable=0;points=[];autosize=1;strokeColor=none;" parent="1" vertex="1">
          <mxGeometry x="419" y="842" width="30" height="20" as="geometry" />
        </mxCell>
        <mxCell id="98p_dCbyfDko-DnN-u34-152" style="vsdxID=102;edgeStyle=none;startArrow=none;endArrow=classic;startSize=5;endSize=5;strokeColor=#923931;spacingTop=0;spacingBottom=0;spacingLeft=0;spacingRight=0;verticalAlign=middle;html=1;labelBackgroundColor=#ffffff;rounded=0;" parent="1" edge="1">
          <mxGeometry relative="1" as="geometry">
            <Array as="points" />
            <mxPoint x="527" y="847" as="sourcePoint" />
            <mxPoint x="527" y="875" as="targetPoint" />
          </mxGeometry>
        </mxCell>
        <mxCell id="98p_dCbyfDko-DnN-u34-153" value="&lt;font face=&quot;cambria math&quot;&gt;&lt;span style=&quot;font-size: 15px&quot;&gt;-1&lt;/span&gt;&lt;/font&gt;" style="text;html=1;align=center;verticalAlign=middle;resizable=0;points=[];autosize=1;strokeColor=none;" parent="1" vertex="1">
          <mxGeometry x="496" y="842" width="30" height="20" as="geometry" />
        </mxCell>
        <mxCell id="98p_dCbyfDko-DnN-u34-157" style="vsdxID=102;edgeStyle=none;startArrow=none;endArrow=classic;startSize=5;endSize=5;strokeColor=#923931;spacingTop=0;spacingBottom=0;spacingLeft=0;spacingRight=0;verticalAlign=middle;html=1;labelBackgroundColor=#ffffff;rounded=0;" parent="1" edge="1">
          <mxGeometry relative="1" as="geometry">
            <Array as="points" />
            <mxPoint x="141" y="847" as="sourcePoint" />
            <mxPoint x="141" y="875" as="targetPoint" />
          </mxGeometry>
        </mxCell>
        <mxCell id="98p_dCbyfDko-DnN-u34-158" style="vsdxID=102;edgeStyle=none;startArrow=none;endArrow=classic;startSize=5;endSize=5;strokeColor=#923931;spacingTop=0;spacingBottom=0;spacingLeft=0;spacingRight=0;verticalAlign=middle;html=1;labelBackgroundColor=#ffffff;rounded=0;" parent="1" edge="1">
          <mxGeometry relative="1" as="geometry">
            <Array as="points" />
            <mxPoint x="66" y="847" as="sourcePoint" />
            <mxPoint x="66" y="875" as="targetPoint" />
          </mxGeometry>
        </mxCell>
        <mxCell id="98p_dCbyfDko-DnN-u34-159" style="vsdxID=102;edgeStyle=none;startArrow=none;endArrow=classic;startSize=5;endSize=5;strokeColor=#923931;spacingTop=0;spacingBottom=0;spacingLeft=0;spacingRight=0;verticalAlign=middle;html=1;labelBackgroundColor=#ffffff;rounded=0;" parent="1" edge="1">
          <mxGeometry relative="1" as="geometry">
            <Array as="points" />
            <mxPoint x="-7" y="848" as="sourcePoint" />
            <mxPoint x="-7" y="876" as="targetPoint" />
          </mxGeometry>
        </mxCell>
        <mxCell id="98p_dCbyfDko-DnN-u34-161" style="vsdxID=197;fillColor=#EBF1DF;gradientColor=none;shape=stencil(nZBLDoAgDERP0z3SIyjew0SURgSD+Lu9kMZoXLhwN9O+tukAlrNpJg1SzDH4QW/URgNYgZTkjA4UkwJUgGXng+6DX1zLfmoymdXo17xh5zmRJ6Q42BWCfc2oJfdAr+Yv+AP9Cb7OJ3H/2JG1HNGz/84klThPVCc=);strokeColor=#000000;labelBackgroundColor=none;rounded=0;html=1;whiteSpace=wrap;" parent="1" vertex="1">
          <mxGeometry x="251" y="972" width="40" height="38" as="geometry" />
        </mxCell>
        <mxCell id="98p_dCbyfDko-DnN-u34-162" value="x" style="text;html=1;align=center;verticalAlign=middle;resizable=0;points=[];autosize=1;strokeColor=none;" parent="1" vertex="1">
          <mxGeometry x="269" y="940" width="20" height="20" as="geometry" />
        </mxCell>
        <mxCell id="98p_dCbyfDko-DnN-u34-164" style="vsdxID=247;edgeStyle=none;startArrow=none;endArrow=classic;startSize=5;endSize=5;strokeColor=#923931;spacingTop=0;spacingBottom=0;spacingLeft=0;spacingRight=0;verticalAlign=middle;html=1;labelBackgroundColor=#ffffff;rounded=0;" parent="1" edge="1">
          <mxGeometry relative="1" as="geometry">
            <Array as="points" />
            <mxPoint x="257" y="1013" as="sourcePoint" />
            <mxPoint x="257" y="1049" as="targetPoint" />
          </mxGeometry>
        </mxCell>
        <mxCell id="98p_dCbyfDko-DnN-u34-165" style="vsdxID=247;edgeStyle=none;startArrow=none;endArrow=classic;startSize=5;endSize=5;strokeColor=#923931;spacingTop=0;spacingBottom=0;spacingLeft=0;spacingRight=0;verticalAlign=middle;html=1;labelBackgroundColor=#ffffff;rounded=0;" parent="1" edge="1">
          <mxGeometry relative="1" as="geometry">
            <Array as="points" />
            <mxPoint x="286" y="1012" as="sourcePoint" />
            <mxPoint x="286" y="1048" as="targetPoint" />
          </mxGeometry>
        </mxCell>
        <mxCell id="98p_dCbyfDko-DnN-u34-166" style="vsdxID=197;fillColor=#ebf1df;gradientColor=none;shape=stencil(nZBLDoAgDERP0z3SIyjew0SURgSD+Lu9kMZoXLhwN9O+tukAlrNpJg1SzDH4QW/URgNYgZTkjA4UkwJUgGXng+6DX1zLfmoymdXo17xh5zmRJ6Q42BWCfc2oJfdAr+Yv+AP9Cb7OJ3H/2JG1HNGz/84klThPVCc=);strokeColor=#000000;labelBackgroundColor=none;rounded=0;html=1;whiteSpace=wrap;" parent="1" vertex="1">
          <mxGeometry x="221" y="1050" width="44" height="30" as="geometry" />
        </mxCell>
        <mxCell id="98p_dCbyfDko-DnN-u34-167" style="vsdxID=197;fillColor=#ebf1df;gradientColor=none;shape=stencil(nZBLDoAgDERP0z3SIyjew0SURgSD+Lu9kMZoXLhwN9O+tukAlrNpJg1SzDH4QW/URgNYgZTkjA4UkwJUgGXng+6DX1zLfmoymdXo17xh5zmRJ6Q42BWCfc2oJfdAr+Yv+AP9Cb7OJ3H/2JG1HNGz/84klThPVCc=);strokeColor=#000000;labelBackgroundColor=none;rounded=0;html=1;whiteSpace=wrap;" parent="1" vertex="1">
          <mxGeometry x="282" y="1050" width="39" height="30" as="geometry" />
        </mxCell>
        <mxCell id="98p_dCbyfDko-DnN-u34-168" value="&lt;span style=&quot;font-family: &amp;#34;cambria math&amp;#34; ; font-size: 15px&quot;&gt;1&lt;/span&gt;" style="text;html=1;align=center;verticalAlign=middle;resizable=0;points=[];autosize=1;strokeColor=none;" parent="1" vertex="1">
          <mxGeometry x="237" y="1020" width="20" height="20" as="geometry" />
        </mxCell>
        <mxCell id="98p_dCbyfDko-DnN-u34-169" value="&lt;span style=&quot;font-family: &amp;#34;cambria math&amp;#34; ; font-size: 15px&quot;&gt;1&lt;/span&gt;" style="text;html=1;align=center;verticalAlign=middle;resizable=0;points=[];autosize=1;strokeColor=none;" parent="1" vertex="1">
          <mxGeometry x="269" y="1020" width="20" height="20" as="geometry" />
        </mxCell>
        <mxCell id="98p_dCbyfDko-DnN-u34-170" value="&lt;span style=&quot;font-family: &amp;#34;cambria math&amp;#34; ; font-size: 15px&quot;&gt;De+&lt;/span&gt;&lt;span style=&quot;font-family: &amp;#34;cambria math&amp;#34; ; letter-spacing: 0px ; font-size: 15px&quot;&gt;m&lt;/span&gt;&lt;sub style=&quot;font-family: &amp;#34;cambria math&amp;#34; ; letter-spacing: 0px&quot;&gt;Q&lt;/sub&gt;&lt;span style=&quot;font-family: &amp;#34;cambria math&amp;#34; ; font-size: 15px&quot;&gt;&lt;br&gt;&lt;/span&gt;" style="verticalAlign=middle;align=center;vsdxID=66;fillColor=#FFFFFF;gradientColor=none;shape=stencil(vVHLDsIgEPwajiQI6RfU+h8bu22JCGRB2/69kG1iazx58DazM/vIjjBtmiCi0CplCjecbZ8nYc5Ca+snJJsLEqYTph0C4Ujh4XvmEaqzont41gkL96naodXKrGF6YSfQtUi0OXXDVlqPfJNP6usotUhYbJIUMmQb/GGrAxpRljVycDBuc1hKM2LclX8/7H9nFfB+82Cd45T2+mcspcSRmu4F);spacingTop=-3;spacingBottom=-1;spacingLeft=-3;spacingRight=-3;labelBackgroundColor=none;rounded=0;html=1;whiteSpace=wrap;" parent="1" vertex="1">
          <mxGeometry x="561" y="676" width="62" height="44" as="geometry" />
        </mxCell>
        <mxCell id="98p_dCbyfDko-DnN-u34-171" value="&lt;p style=&quot;margin-left: 0 ; margin-right: 0 ; margin-top: 0px ; margin-bottom: 0px ; text-indent: 0 ; direction: ltr&quot;&gt;&lt;font style=&quot;font-size: 15px ; font-family: &amp;#34;cambria math&amp;#34; ; color: #000000 ; direction: ltr ; letter-spacing: 0px ; line-height: 120% ; opacity: 1&quot;&gt;M&lt;sub&gt;Q&lt;/sub&gt;&lt;/font&gt;&lt;/p&gt;" style="verticalAlign=middle;align=center;vsdxID=66;fillColor=#FFFFFF;gradientColor=none;shape=stencil(vVHLDsIgEPwajiQI6RfU+h8bu22JCGRB2/69kG1iazx58DazM/vIjjBtmiCi0CplCjecbZ8nYc5Ca+snJJsLEqYTph0C4Ujh4XvmEaqzont41gkL96naodXKrGF6YSfQtUi0OXXDVlqPfJNP6usotUhYbJIUMmQb/GGrAxpRljVycDBuc1hKM2LclX8/7H9nFfB+82Cd45T2+mcspcSRmu4F);spacingTop=-3;spacingBottom=-1;spacingLeft=-3;spacingRight=-3;labelBackgroundColor=none;rounded=0;html=1;whiteSpace=wrap;" parent="1" vertex="1">
          <mxGeometry x="630" y="687" width="50" height="28" as="geometry" />
        </mxCell>
        <mxCell id="98p_dCbyfDko-DnN-u34-172" style="vsdxID=247;edgeStyle=none;startArrow=none;endArrow=classic;startSize=5;endSize=5;strokeColor=#923931;spacingTop=0;spacingBottom=0;spacingLeft=0;spacingRight=0;verticalAlign=middle;html=1;labelBackgroundColor=#ffffff;rounded=0;" parent="1" edge="1">
          <mxGeometry relative="1" as="geometry">
            <Array as="points" />
            <mxPoint x="247" y="1091" as="sourcePoint" />
            <mxPoint x="247" y="1127" as="targetPoint" />
          </mxGeometry>
        </mxCell>
        <mxCell id="98p_dCbyfDko-DnN-u34-173" style="vsdxID=247;edgeStyle=none;startArrow=none;endArrow=classic;startSize=5;endSize=5;strokeColor=#923931;spacingTop=0;spacingBottom=0;spacingLeft=0;spacingRight=0;verticalAlign=middle;html=1;labelBackgroundColor=#ffffff;rounded=0;" parent="1" edge="1">
          <mxGeometry relative="1" as="geometry">
            <Array as="points" />
            <mxPoint x="299" y="1090" as="sourcePoint" />
            <mxPoint x="299" y="1126" as="targetPoint" />
          </mxGeometry>
        </mxCell>
        <mxCell id="98p_dCbyfDko-DnN-u34-174" style="vsdxID=247;edgeStyle=orthogonalEdgeStyle;startArrow=none;endArrow=classic;startSize=5;endSize=5;strokeColor=#923931;spacingTop=0;spacingBottom=0;spacingLeft=0;spacingRight=0;verticalAlign=middle;html=1;labelBackgroundColor=#ffffff;rounded=0;exitX=0.468;exitY=1;exitDx=0;exitDy=0;exitPerimeter=0;curved=1;entryX=0.509;entryY=0.025;entryDx=0;entryDy=0;entryPerimeter=0;" parent="1" source="98p_dCbyfDko-DnN-u34-170" target="98p_dCbyfDko-DnN-u34-176" edge="1">
          <mxGeometry relative="1" as="geometry">
            <Array as="points">
              <mxPoint x="590" y="1080" />
              <mxPoint x="357" y="1080" />
              <mxPoint x="357" y="1120" />
              <mxPoint x="353" y="1120" />
            </Array>
            <mxPoint x="360" y="1086" as="sourcePoint" />
            <mxPoint x="357" y="1120" as="targetPoint" />
          </mxGeometry>
        </mxCell>
        <mxCell id="98p_dCbyfDko-DnN-u34-175" style="vsdxID=247;edgeStyle=orthogonalEdgeStyle;startArrow=none;endArrow=classic;startSize=5;endSize=5;strokeColor=#923931;spacingTop=0;spacingBottom=0;spacingLeft=0;spacingRight=0;verticalAlign=middle;html=1;labelBackgroundColor=#ffffff;rounded=0;curved=1;entryX=0.805;entryY=0;entryDx=0;entryDy=0;entryPerimeter=0;" parent="1" target="98p_dCbyfDko-DnN-u34-176" edge="1">
          <mxGeometry relative="1" as="geometry">
            <Array as="points">
              <mxPoint x="650" y="720" />
              <mxPoint x="650" y="1110" />
              <mxPoint x="418" y="1110" />
            </Array>
            <mxPoint x="660" y="720" as="sourcePoint" />
            <mxPoint x="434" y="1122" as="targetPoint" />
          </mxGeometry>
        </mxCell>
        <mxCell id="98p_dCbyfDko-DnN-u34-176" style="vsdxID=197;fillColor=#e1d5e7;shape=stencil(nZBLDoAgDERP0z3SIyjew0SURgSD+Lu9kMZoXLhwN9O+tukAlrNpJg1SzDH4QW/URgNYgZTkjA4UkwJUgGXng+6DX1zLfmoymdXo17xh5zmRJ6Q42BWCfc2oJfdAr+Yv+AP9Cb7OJ3H/2JG1HNGz/84klThPVCc=);strokeColor=#9673a6;labelBackgroundColor=none;rounded=0;html=1;whiteSpace=wrap;" parent="1" vertex="1">
          <mxGeometry x="241" y="1129" width="220" height="40" as="geometry" />
        </mxCell>
        <mxCell id="98p_dCbyfDko-DnN-u34-178" style="vsdxID=247;edgeStyle=none;startArrow=none;endArrow=classic;startSize=5;endSize=5;strokeColor=#923931;spacingTop=0;spacingBottom=0;spacingLeft=0;spacingRight=0;verticalAlign=middle;html=1;labelBackgroundColor=#ffffff;rounded=0;" parent="1" edge="1">
          <mxGeometry relative="1" as="geometry">
            <Array as="points" />
            <mxPoint x="290" y="1170" as="sourcePoint" />
            <mxPoint x="290" y="1206" as="targetPoint" />
          </mxGeometry>
        </mxCell>
        <mxCell id="98p_dCbyfDko-DnN-u34-179" style="vsdxID=247;edgeStyle=none;startArrow=none;endArrow=classic;startSize=5;endSize=5;strokeColor=#923931;spacingTop=0;spacingBottom=0;spacingLeft=0;spacingRight=0;verticalAlign=middle;html=1;labelBackgroundColor=#ffffff;rounded=0;" parent="1" edge="1">
          <mxGeometry relative="1" as="geometry">
            <Array as="points" />
            <mxPoint x="431" y="1171" as="sourcePoint" />
            <mxPoint x="431" y="1207" as="targetPoint" />
          </mxGeometry>
        </mxCell>
        <mxCell id="98p_dCbyfDko-DnN-u34-180" style="vsdxID=93;fillColor=#f2dcda;gradientColor=none;shape=stencil(nZBLDoAgDERP0z3SIyjew0SURgSD+Lu9kMZoXLhwN9O+tukAlrNpJg1SzDH4QW/URgNYgZTkjA4UkwJUgGXng+6DX1zLfmoymdXo17xh5zmRJ6Q42BWCfc2oJfdAr+Yv+AP9Cb7OJ3H/2JG1HNGz/84klThPVCc=);strokeColor=#000000;labelBackgroundColor=none;rounded=0;html=1;whiteSpace=wrap;" parent="1" vertex="1">
          <mxGeometry x="241" y="1207" width="260" height="47" as="geometry" />
        </mxCell>
        <mxCell id="98p_dCbyfDko-DnN-u34-186" style="vsdxID=102;edgeStyle=orthogonalEdgeStyle;startArrow=none;endArrow=classic;startSize=5;endSize=5;strokeColor=#923931;spacingTop=0;spacingBottom=0;spacingLeft=0;spacingRight=0;verticalAlign=middle;html=1;labelBackgroundColor=#ffffff;rounded=0;curved=1;entryX=0.083;entryY=0.038;entryDx=0;entryDy=0;entryPerimeter=0;" parent="1" target="98p_dCbyfDko-DnN-u34-5" edge="1">
          <mxGeometry relative="1" as="geometry">
            <mxPoint x="301" y="1257" as="sourcePoint" />
            <mxPoint x="341" y="1290" as="targetPoint" />
          </mxGeometry>
        </mxCell>
        <mxCell id="98p_dCbyfDko-DnN-u34-187" value="&lt;font face=&quot;cambria math&quot;&gt;&lt;span style=&quot;font-size: 15px&quot;&gt;1&lt;/span&gt;&lt;/font&gt;" style="text;html=1;align=center;verticalAlign=middle;resizable=0;points=[];autosize=1;strokeColor=none;" parent="1" vertex="1">
          <mxGeometry x="306" y="1260" width="20" height="20" as="geometry" />
        </mxCell>
        <mxCell id="98p_dCbyfDko-DnN-u34-188" style="vsdxID=102;edgeStyle=orthogonalEdgeStyle;startArrow=none;endArrow=classic;startSize=5;endSize=5;strokeColor=#923931;spacingTop=0;spacingBottom=0;spacingLeft=0;spacingRight=0;verticalAlign=middle;html=1;labelBackgroundColor=#ffffff;rounded=0;curved=1;entryX=0.545;entryY=-0.091;entryDx=0;entryDy=0;entryPerimeter=0;" parent="1" target="98p_dCbyfDko-DnN-u34-42" edge="1">
          <mxGeometry relative="1" as="geometry">
            <mxPoint x="361" y="1274" as="sourcePoint" />
            <mxPoint x="361" y="1290" as="targetPoint" />
          </mxGeometry>
        </mxCell>
        <mxCell id="98p_dCbyfDko-DnN-u34-190" style="vsdxID=102;edgeStyle=orthogonalEdgeStyle;startArrow=none;endArrow=classic;startSize=5;endSize=5;strokeColor=#923931;spacingTop=0;spacingBottom=0;spacingLeft=0;spacingRight=0;verticalAlign=middle;html=1;labelBackgroundColor=#ffffff;rounded=0;curved=1;entryX=0.938;entryY=0.038;entryDx=0;entryDy=0;entryPerimeter=0;" parent="1" target="98p_dCbyfDko-DnN-u34-5" edge="1">
          <mxGeometry relative="1" as="geometry">
            <Array as="points">
              <mxPoint x="411" y="1256" />
              <mxPoint x="411" y="1284" />
              <mxPoint x="381" y="1284" />
            </Array>
            <mxPoint x="460" y="1256" as="sourcePoint" />
            <mxPoint x="381" y="1284" as="targetPoint" />
          </mxGeometry>
        </mxCell>
        <mxCell id="98p_dCbyfDko-DnN-u34-191" value="&lt;font face=&quot;cambria math&quot;&gt;&lt;span style=&quot;font-size: 15px&quot;&gt;1&lt;/span&gt;&lt;/font&gt;" style="text;html=1;align=center;verticalAlign=middle;resizable=0;points=[];autosize=1;strokeColor=none;" parent="1" vertex="1">
          <mxGeometry x="396" y="1260" width="20" height="20" as="geometry" />
        </mxCell>
        <mxCell id="98p_dCbyfDko-DnN-u34-199" value="" style="vsdxID=102;edgeStyle=orthogonalEdgeStyle;startArrow=none;endArrow=none;startSize=5;endSize=5;strokeColor=#923931;spacingTop=0;spacingBottom=0;spacingLeft=0;spacingRight=0;verticalAlign=middle;html=1;labelBackgroundColor=#ffffff;rounded=0;curved=1;" parent="1" edge="1">
          <mxGeometry relative="1" as="geometry">
            <Array as="points">
              <mxPoint x="366" y="1256" />
              <mxPoint x="366" y="1256" />
            </Array>
            <mxPoint x="382" y="1256" as="sourcePoint" />
            <mxPoint x="361" y="1274" as="targetPoint" />
          </mxGeometry>
        </mxCell>
        <mxCell id="98p_dCbyfDko-DnN-u34-203" value="&lt;font face=&quot;cambria math&quot;&gt;&lt;span style=&quot;font-size: 15px&quot;&gt;-1&lt;/span&gt;&lt;/font&gt;" style="text;html=1;align=center;verticalAlign=middle;resizable=0;points=[];autosize=1;strokeColor=none;" parent="1" vertex="1">
          <mxGeometry x="351" y="1260" width="30" height="20" as="geometry" />
        </mxCell>
        <mxCell id="98p_dCbyfDko-DnN-u34-204" value="&lt;p style=&quot;margin-left: 0 ; margin-right: 0 ; margin-top: 0px ; margin-bottom: 0px ; text-indent: 0 ; direction: ltr&quot;&gt;&lt;font face=&quot;cambria math&quot;&gt;&lt;span style=&quot;font-size: 15px&quot;&gt;Ga&lt;/span&gt;&lt;/font&gt;&lt;/p&gt;" style="verticalAlign=middle;align=center;vsdxID=66;fillColor=#FFFFFF;gradientColor=none;shape=stencil(vVHLDsIgEPwajiQI6RfU+h8bu22JCGRB2/69kG1iazx58DazM/vIjjBtmiCi0CplCjecbZ8nYc5Ca+snJJsLEqYTph0C4Ujh4XvmEaqzont41gkL96naodXKrGF6YSfQtUi0OXXDVlqPfJNP6usotUhYbJIUMmQb/GGrAxpRljVycDBuc1hKM2LclX8/7H9nFfB+82Cd45T2+mcspcSRmu4F);spacingTop=-3;spacingBottom=-1;spacingLeft=-3;spacingRight=-3;labelBackgroundColor=none;rounded=0;html=1;whiteSpace=wrap;" parent="1" vertex="1">
          <mxGeometry x="232" y="1054" width="22" height="22" as="geometry" />
        </mxCell>
        <mxCell id="98p_dCbyfDko-DnN-u34-205" value="&lt;p style=&quot;margin-left: 0 ; margin-right: 0 ; margin-top: 0px ; margin-bottom: 0px ; text-indent: 0 ; direction: ltr&quot;&gt;&lt;font face=&quot;cambria math&quot;&gt;&lt;span style=&quot;font-size: 15px&quot;&gt;Ga&lt;/span&gt;&lt;/font&gt;&lt;/p&gt;" style="verticalAlign=middle;align=center;vsdxID=66;fillColor=#FFFFFF;gradientColor=none;shape=stencil(vVHLDsIgEPwajiQI6RfU+h8bu22JCGRB2/69kG1iazx58DazM/vIjjBtmiCi0CplCjecbZ8nYc5Ca+snJJsLEqYTph0C4Ujh4XvmEaqzont41gkL96naodXKrGF6YSfQtUi0OXXDVlqPfJNP6usotUhYbJIUMmQb/GGrAxpRljVycDBuc1hKM2LclX8/7H9nFfB+82Cd45T2+mcspcSRmu4F);spacingTop=-3;spacingBottom=-1;spacingLeft=-3;spacingRight=-3;labelBackgroundColor=none;rounded=0;html=1;whiteSpace=wrap;" parent="1" vertex="1">
          <mxGeometry x="258" y="980" width="22" height="22" as="geometry" />
        </mxCell>
        <mxCell id="98p_dCbyfDko-DnN-u34-206" value="&lt;p style=&quot;margin-left: 0 ; margin-right: 0 ; margin-top: 0px ; margin-bottom: 0px ; text-indent: 0 ; direction: ltr&quot;&gt;&lt;font face=&quot;cambria math&quot;&gt;&lt;span style=&quot;font-size: 15px&quot;&gt;Ga&lt;/span&gt;&lt;/font&gt;&lt;/p&gt;" style="verticalAlign=middle;align=center;vsdxID=66;fillColor=#FFFFFF;gradientColor=none;shape=stencil(vVHLDsIgEPwajiQI6RfU+h8bu22JCGRB2/69kG1iazx58DazM/vIjjBtmiCi0CplCjecbZ8nYc5Ca+snJJsLEqYTph0C4Ujh4XvmEaqzont41gkL96naodXKrGF6YSfQtUi0OXXDVlqPfJNP6usotUhYbJIUMmQb/GGrAxpRljVycDBuc1hKM2LclX8/7H9nFfB+82Cd45T2+mcspcSRmu4F);spacingTop=-3;spacingBottom=-1;spacingLeft=-3;spacingRight=-3;labelBackgroundColor=none;rounded=0;html=1;whiteSpace=wrap;" parent="1" vertex="1">
          <mxGeometry x="291" y="1054" width="22" height="22" as="geometry" />
        </mxCell>
        <mxCell id="98p_dCbyfDko-DnN-u34-208" value="&lt;p style=&quot;margin-left: 0 ; margin-right: 0 ; margin-top: 0px ; margin-bottom: 0px ; text-indent: 0 ; direction: ltr&quot;&gt;&lt;/p&gt;&lt;p style=&quot;margin: 0px ; direction: ltr&quot;&gt;&lt;span style=&quot;font-family: &amp;#34;cambria math&amp;#34; ; font-size: 15px&quot;&gt;Ga*(De+m&lt;sub&gt;Q&lt;/sub&gt;)&lt;/span&gt;&lt;/p&gt;&lt;font face=&quot;cambria math&quot;&gt;&lt;/font&gt;" style="verticalAlign=middle;align=center;vsdxID=66;fillColor=#FFFFFF;gradientColor=none;shape=stencil(vVHLDsIgEPwajiQI6RfU+h8bu22JCGRB2/69kG1iazx58DazM/vIjjBtmiCi0CplCjecbZ8nYc5Ca+snJJsLEqYTph0C4Ujh4XvmEaqzont41gkL96naodXKrGF6YSfQtUi0OXXDVlqPfJNP6usotUhYbJIUMmQb/GGrAxpRljVycDBuc1hKM2LclX8/7H9nFfB+82Cd45T2+mcspcSRmu4F);spacingTop=-3;spacingBottom=-1;spacingLeft=-3;spacingRight=-3;labelBackgroundColor=none;rounded=0;html=1;whiteSpace=wrap;" parent="1" vertex="1">
          <mxGeometry x="244" y="1133" width="120" height="30" as="geometry" />
        </mxCell>
        <mxCell id="98p_dCbyfDko-DnN-u34-209" value="&lt;p style=&quot;margin-left: 0 ; margin-right: 0 ; margin-top: 0px ; margin-bottom: 0px ; text-indent: 0 ; direction: ltr&quot;&gt;&lt;/p&gt;&lt;font face=&quot;cambria math&quot;&gt;&lt;span style=&quot;font-size: 15px;&quot;&gt;Ga*&lt;/span&gt;&lt;/font&gt;M&lt;sub style=&quot;border-color: var(--border-color); font-family: &amp;quot;cambria math&amp;quot;;&quot;&gt;Q&lt;/sub&gt;" style="verticalAlign=middle;align=center;vsdxID=66;fillColor=#FFFFFF;gradientColor=none;shape=stencil(vVHLDsIgEPwajiQI6RfU+h8bu22JCGRB2/69kG1iazx58DazM/vIjjBtmiCi0CplCjecbZ8nYc5Ca+snJJsLEqYTph0C4Ujh4XvmEaqzont41gkL96naodXKrGF6YSfQtUi0OXXDVlqPfJNP6usotUhYbJIUMmQb/GGrAxpRljVycDBuc1hKM2LclX8/7H9nFfB+82Cd45T2+mcspcSRmu4F);spacingTop=-3;spacingBottom=-1;spacingLeft=-3;spacingRight=-3;labelBackgroundColor=none;rounded=0;html=1;whiteSpace=wrap;" parent="1" vertex="1">
          <mxGeometry x="367" y="1135" width="90" height="30" as="geometry" />
        </mxCell>
        <mxCell id="98p_dCbyfDko-DnN-u34-211" style="vsdxID=247;edgeStyle=none;startArrow=none;endArrow=classic;startSize=5;endSize=5;strokeColor=#923931;spacingTop=0;spacingBottom=0;spacingLeft=0;spacingRight=0;verticalAlign=middle;html=1;labelBackgroundColor=#ffffff;rounded=0;" parent="1" edge="1">
          <mxGeometry relative="1" as="geometry">
            <Array as="points" />
            <mxPoint x="500" y="1110" as="sourcePoint" />
            <mxPoint x="484" y="1205" as="targetPoint" />
          </mxGeometry>
        </mxCell>
        <mxCell id="98p_dCbyfDko-DnN-u34-212" style="vsdxID=247;edgeStyle=none;startArrow=none;endArrow=classic;startSize=5;endSize=5;strokeColor=#923931;spacingTop=0;spacingBottom=0;spacingLeft=0;spacingRight=0;verticalAlign=middle;html=1;labelBackgroundColor=#ffffff;rounded=0;" parent="1" edge="1">
          <mxGeometry relative="1" as="geometry">
            <Array as="points" />
            <mxPoint x="360" y="1323" as="sourcePoint" />
            <mxPoint x="360" y="1359" as="targetPoint" />
          </mxGeometry>
        </mxCell>
        <mxCell id="ZETlsAMm3bT8mgdV8cCT-1" value="&lt;font style=&quot;font-family: calibri; color: rgb(0, 0, 0); direction: ltr; letter-spacing: 0px; line-height: 120%; opacity: 1;&quot;&gt;&lt;font style=&quot;font-size: 23px;&quot;&gt;Entrées&lt;/font&gt;&lt;br&gt;&lt;/font&gt;" style="verticalAlign=middle;align=center;vsdxID=192;fillColor=#fff2cc;gradientColor=none;shape=stencil(nZBLDoAgDERP0z3SIyjew0SURgSD+Lu9kMZoXLhwN9O+tukAlrNpJg1SzDH4QW/URgNYgZTkjA4UkwJUgGXng+6DX1zLfmoymdXo17xh5zmRJ6Q42BWCfc2oJfdAr+Yv+AP9Cb7OJ3H/2JG1HNGz/84klThPVCc=);strokeColor=none;labelBackgroundColor=none;rounded=0;html=1;whiteSpace=wrap;" parent="1" vertex="1">
          <mxGeometry x="700" y="682" width="204" height="34" as="geometry" />
        </mxCell>
        <mxCell id="49uxui-VFQjqyITrKh-r-1" value="" style="shape=curlyBracket;whiteSpace=wrap;html=1;rounded=1;flipH=1;labelPosition=right;verticalLabelPosition=middle;align=left;verticalAlign=middle;strokeWidth=2;" parent="1" vertex="1">
          <mxGeometry x="680" y="799" width="20" height="461" as="geometry" />
        </mxCell>
      </root>
    </mxGraphModel>
  </diagram>
</mxfile>
